<svg xmlns="http://www.w3.org/2000/svg" version="1.1" xmlns:xlink="http://www.w3.org/1999/xlink" xmlns:svgjs="http://svgjs.dev/svgjs" width="1920" height="300" preserveAspectRatio="none" viewBox="0 0 1920 300"><g mask="url(&quot;#SvgjsMask1009&quot;)" fill="none"><rect width="1920" height="300" x="0" y="0" fill="rgba(65, 84, 241, 1)"></rect><path d="M1656 103L1770 -11" stroke-width="6" stroke="url(&quot;#SvgjsLinearGradient1010&quot;)" stroke-linecap="round" class="BottomLeft"></path><path d="M79 39L162 -44" stroke-width="6" stroke="url(&quot;#SvgjsLinearGradient1011&quot;)" stroke-linecap="round" class="TopRight"></path><path d="M555 98L660 -7" stroke-width="10" stroke="url(&quot;#SvgjsLinearGradient1010&quot;)" stroke-linecap="round" class="BottomLeft"></path><path d="M243 147L122 268" stroke-width="8" stroke="url(&quot;#SvgjsLinearGradient1011&quot;)" stroke-linecap="round" class="TopRight"></path><path d="M1126 236L1331 31" stroke-width="6" stroke="url(&quot;#SvgjsLinearGradient1011&quot;)" stroke-linecap="round" class="TopRight"></path><path d="M385 231L553 63" stroke-width="10" stroke="url(&quot;#SvgjsLinearGradient1011&quot;)" stroke-linecap="round" class="TopRight"></path><path d="M1265 186L1429 22" stroke-width="10" stroke="url(&quot;#SvgjsLinearGradient1011&quot;)" stroke-linecap="round" class="TopRight"></path><path d="M483 233L608 108" stroke-width="6" stroke="url(&quot;#SvgjsLinearGradient1010&quot;)" stroke-linecap="round" class="BottomLeft"></path><path d="M658 239L582 315" stroke-width="10" stroke="url(&quot;#SvgjsLinearGradient1011&quot;)" stroke-linecap="round" class="TopRight"></path><path d="M363 278L582 59" stroke-width="10" stroke="url(&quot;#SvgjsLinearGradient1010&quot;)" stroke-linecap="round" class="BottomLeft"></path><path d="M402 270L517 155" stroke-width="6" stroke="url(&quot;#SvgjsLinearGradient1011&quot;)" stroke-linecap="round" class="TopRight"></path><path d="M1678 43L1470 251" stroke-width="10" stroke="url(&quot;#SvgjsLinearGradient1011&quot;)" stroke-linecap="round" class="TopRight"></path><path d="M28 12L208 -168" stroke-width="6" stroke="url(&quot;#SvgjsLinearGradient1011&quot;)" stroke-linecap="round" class="TopRight"></path><path d="M991 68L1176 -117" stroke-width="6" stroke="url(&quot;#SvgjsLinearGradient1010&quot;)" stroke-linecap="round" class="BottomLeft"></path><path d="M32 117L153 -4" stroke-width="8" stroke="url(&quot;#SvgjsLinearGradient1010&quot;)" stroke-linecap="round" class="BottomLeft"></path><path d="M1223 199L1012 410" stroke-width="8" stroke="url(&quot;#SvgjsLinearGradient1011&quot;)" stroke-linecap="round" class="TopRight"></path><path d="M1048 269L833 484" stroke-width="10" stroke="url(&quot;#SvgjsLinearGradient1011&quot;)" stroke-linecap="round" class="TopRight"></path><path d="M1903 202L2115 -10" stroke-width="8" stroke="url(&quot;#SvgjsLinearGradient1011&quot;)" stroke-linecap="round" class="TopRight"></path><path d="M1350 286L1559 77" stroke-width="6" stroke="url(&quot;#SvgjsLinearGradient1011&quot;)" stroke-linecap="round" class="TopRight"></path><path d="M1063 295L967 391" stroke-width="10" stroke="url(&quot;#SvgjsLinearGradient1011&quot;)" stroke-linecap="round" class="TopRight"></path><path d="M539 145L736 -52" stroke-width="8" stroke="url(&quot;#SvgjsLinearGradient1010&quot;)" stroke-linecap="round" class="BottomLeft"></path><path d="M1261 145L1363 43" stroke-width="10" stroke="url(&quot;#SvgjsLinearGradient1010&quot;)" stroke-linecap="round" class="BottomLeft"></path><path d="M1126 282L965 443" stroke-width="6" stroke="url(&quot;#SvgjsLinearGradient1010&quot;)" stroke-linecap="round" class="BottomLeft"></path><path d="M1846 261L1709 398" stroke-width="6" stroke="url(&quot;#SvgjsLinearGradient1010&quot;)" stroke-linecap="round" class="BottomLeft"></path><path d="M1445 226L1607 64" stroke-width="8" stroke="url(&quot;#SvgjsLinearGradient1010&quot;)" stroke-linecap="round" class="BottomLeft"></path><path d="M346 298L484 160" stroke-width="6" stroke="url(&quot;#SvgjsLinearGradient1010&quot;)" stroke-linecap="round" class="BottomLeft"></path><path d="M663 124L815 -28" stroke-width="6" stroke="url(&quot;#SvgjsLinearGradient1010&quot;)" stroke-linecap="round" class="BottomLeft"></path><path d="M1392 140L1568 -36" stroke-width="8" stroke="url(&quot;#SvgjsLinearGradient1011&quot;)" stroke-linecap="round" class="TopRight"></path><path d="M18 280L-145 443" stroke-width="8" stroke="url(&quot;#SvgjsLinearGradient1010&quot;)" stroke-linecap="round" class="BottomLeft"></path><path d="M1536 180L1383 333" stroke-width="10" stroke="url(&quot;#SvgjsLinearGradient1011&quot;)" stroke-linecap="round" class="TopRight"></path><path d="M1327 2L1218 111" stroke-width="10" stroke="url(&quot;#SvgjsLinearGradient1011&quot;)" stroke-linecap="round" class="TopRight"></path><path d="M1354 90L1443 1" stroke-width="6" stroke="url(&quot;#SvgjsLinearGradient1010&quot;)" stroke-linecap="round" class="BottomLeft"></path><path d="M484 216L405 295" stroke-width="6" stroke="url(&quot;#SvgjsLinearGradient1010&quot;)" stroke-linecap="round" class="BottomLeft"></path><path d="M193 11L42 162" stroke-width="8" stroke="url(&quot;#SvgjsLinearGradient1010&quot;)" stroke-linecap="round" class="BottomLeft"></path><path d="M939 110L1063 -14" stroke-width="10" stroke="url(&quot;#SvgjsLinearGradient1011&quot;)" stroke-linecap="round" class="TopRight"></path><path d="M1651 19L1850 -180" stroke-width="6" stroke="url(&quot;#SvgjsLinearGradient1010&quot;)" stroke-linecap="round" class="BottomLeft"></path><path d="M578 216L720 74" stroke-width="10" stroke="url(&quot;#SvgjsLinearGradient1011&quot;)" stroke-linecap="round" class="TopRight"></path><path d="M1176 276L1284 168" stroke-width="10" stroke="url(&quot;#SvgjsLinearGradient1010&quot;)" stroke-linecap="round" class="BottomLeft"></path><path d="M686 224L592 318" stroke-width="10" stroke="url(&quot;#SvgjsLinearGradient1011&quot;)" stroke-linecap="round" class="TopRight"></path><path d="M234 56L387 -97" stroke-width="8" stroke="url(&quot;#SvgjsLinearGradient1011&quot;)" stroke-linecap="round" class="TopRight"></path><path d="M669 260L450 479" stroke-width="8" stroke="url(&quot;#SvgjsLinearGradient1011&quot;)" stroke-linecap="round" class="TopRight"></path><path d="M762 149L938 -27" stroke-width="6" stroke="url(&quot;#SvgjsLinearGradient1010&quot;)" stroke-linecap="round" class="BottomLeft"></path><path d="M894 272L1110 56" stroke-width="10" stroke="url(&quot;#SvgjsLinearGradient1011&quot;)" stroke-linecap="round" class="TopRight"></path><path d="M1159 150L1382 -73" stroke-width="10" stroke="url(&quot;#SvgjsLinearGradient1010&quot;)" stroke-linecap="round" class="BottomLeft"></path><path d="M26 152L215 -37" stroke-width="8" stroke="url(&quot;#SvgjsLinearGradient1010&quot;)" stroke-linecap="round" class="BottomLeft"></path><path d="M1913 48L1776 185" stroke-width="8" stroke="url(&quot;#SvgjsLinearGradient1010&quot;)" stroke-linecap="round" class="BottomLeft"></path><path d="M1095 156L1277 -26" stroke-width="10" stroke="url(&quot;#SvgjsLinearGradient1011&quot;)" stroke-linecap="round" class="TopRight"></path><path d="M542 94L399 237" stroke-width="10" stroke="url(&quot;#SvgjsLinearGradient1011&quot;)" stroke-linecap="round" class="TopRight"></path><path d="M263 130L426 -33" stroke-width="10" stroke="url(&quot;#SvgjsLinearGradient1011&quot;)" stroke-linecap="round" class="TopRight"></path></g><defs><mask id="SvgjsMask1009"><rect width="1920" height="300" fill="#ffffff"></rect></mask><linearGradient x1="100%" y1="0%" x2="0%" y2="100%" id="SvgjsLinearGradient1010"><stop stop-color="rgba(55, 73, 225, 0)" offset="0"></stop><stop stop-color="rgba(55, 73, 225, 1)" offset="1"></stop></linearGradient><linearGradient x1="0%" y1="100%" x2="100%" y2="0%" id="SvgjsLinearGradient1011"><stop stop-color="rgba(55, 73, 225, 0)" offset="0"></stop><stop stop-color="rgba(55, 73, 225, 1)" offset="1"></stop></linearGradient></defs></svg>