<?xml version="1.0" encoding="utf-8"?>
<!-- Generator: Adobe Illustrator 26.0.0, SVG Export Plug-In . SVG Version: 6.00 Build 0)  -->
<svg version="1.1" xmlns="http://www.w3.org/2000/svg" xmlns:xlink="http://www.w3.org/1999/xlink" x="0px" y="0px"
	 viewBox="0 0 1280 720" style="enable-background:new 0 0 1280 720;" xml:space="preserve">
<style type="text/css">
	.st0{fill:#333333;}
	.st1{fill:#FFB606;}
	.st2{display:none;fill:#FF0000;}
	.st3{display:none;}
	.st4{display:inline;}
	.st5{fill:#FFFFFF;}
</style>
<g id="Layer_1">
	<g>
		<g id="_x35_42_x2C__Animation_x2C__computer_x2C__editor_x2C__monitor_x2C__software">
			<g id="XMLID_16489_">
				<g id="XMLID_16491_">
					<g id="XMLID_16492_">
						<g id="XMLID_16499_">
							<path id="XMLID_16500_" class="st0" d="M-527.32,649.14h-473.56c-19.75,0-35.82-15.61-35.82-34.8V282.99
								c0-19.19,16.07-34.8,35.82-34.8h473.56c19.76,0,35.82,15.61,35.82,34.8v331.34C-491.5,633.53-507.56,649.14-527.32,649.14z
								 M-1000.88,260.38c-12.83,0-23.27,10.14-23.27,22.6v331.34c0,12.47,10.44,22.61,23.27,22.61h473.56
								c12.83,0,23.27-10.14,23.27-22.61V282.99c0-12.47-10.44-22.6-23.27-22.6H-1000.88z"/>
						</g>
						<g id="XMLID_16503_">
							<path id="XMLID_16504_" class="st0" d="M-523.06,564.06h-473.18c-3.46,0-6.27-2.73-6.27-6.1V287.48c0-3.37,2.81-6.1,6.27-6.1
								h473.18c3.47,0,6.28,2.73,6.28,6.1v270.48C-516.78,561.33-519.59,564.06-523.06,564.06z M-989.96,551.87h460.63V293.58
								h-460.63V551.87z"/>
						</g>
						<g id="XMLID_16507_">
							<path id="XMLID_16508_" class="st0" d="M-673.13,746.57c-0.01,0-0.02,0-0.02,0h-171.87c-1.94,0-3.78-0.88-4.97-2.37
								c-1.19-1.5-1.59-3.45-1.1-5.28l25.3-93.44c0.72-2.68,3.21-4.54,6.07-4.54h121.25c2.85,0,5.35,1.86,6.07,4.54l25.18,92.91
								c0.24,0.65,0.37,1.35,0.37,2.08C-666.85,743.85-669.65,746.57-673.13,746.57z M-836.87,734.37h155.58l-22.02-81.23h-111.57
								L-836.87,734.37z"/>
						</g>
						<g id="XMLID_16511_">
							<path id="XMLID_16512_" class="st0" d="M-597.16,769.33H-921c-3.46,0-6.28-2.74-6.28-6.1v-22.76c0-3.36,2.82-6.1,6.28-6.1
								h323.84c3.46,0,6.28,2.74,6.28,6.1v22.76C-590.89,766.6-593.7,769.33-597.16,769.33z M-914.72,757.13h311.28v-10.56h-311.28
								V757.13z"/>
						</g>
						<g id="XMLID_16515_">
							<path id="XMLID_16516_" class="st0" d="M-759.08,634.03c-9.59,0-17.4-7.59-17.4-16.91c0-9.32,7.81-16.91,17.4-16.91
								c9.59,0,17.4,7.59,17.4,16.91C-741.68,626.44-749.49,634.03-759.08,634.03z M-759.08,612.41c-2.67,0-4.84,2.11-4.84,4.71
								c0,2.64,2.13,4.7,4.84,4.7c2.67,0,4.85-2.11,4.85-4.7C-754.23,614.52-756.41,612.41-759.08,612.41z"/>
						</g>
						<g id="XMLID_16521_">
							<path id="XMLID_16522_" class="st1" d="M-936.3,535.32c-1.6,0-3.21-0.6-4.43-1.79l-22.63-22c-2.46-2.38-2.46-6.24,0-8.62
								l22.63-22c1.18-1.15,2.77-1.78,4.43-1.78c1.67,0,3.26,0.64,4.44,1.78l22.64,22c1.17,1.14,1.83,2.7,1.83,4.31
								c0,1.62-0.66,3.17-1.83,4.32l-22.64,21.99C-933.08,534.72-934.69,535.32-936.3,535.32z M-950.05,507.22l13.75,13.37
								l13.76-13.37l-13.76-13.36L-950.05,507.22z"/>
						</g>
						<g id="XMLID_16525_">
							<path id="XMLID_16526_" class="st1" d="M-583,535.32c-1.6,0-3.21-0.6-4.43-1.79l-22.64-22c-2.45-2.38-2.45-6.24,0-8.62
								l22.63-22c1.18-1.15,2.78-1.78,4.44-1.78c1.66,0,3.26,0.64,4.44,1.78l22.63,22c1.18,1.14,1.84,2.7,1.84,4.31
								c0,1.62-0.66,3.17-1.84,4.32l-22.63,21.99C-579.79,534.72-581.39,535.32-583,535.32z M-596.75,507.22L-583,520.6l13.76-13.37
								L-583,493.86L-596.75,507.22z"/>
						</g>
						<g id="XMLID_16529_">
							<path id="XMLID_16530_" class="st1" d="M-612.38,513.33h-6.28c-3.47,0-6.28-2.73-6.28-6.1c0-3.37,2.81-6.1,6.28-6.1h6.28
								c3.46,0,6.28,2.73,6.28,6.1C-606.11,510.6-608.92,513.33-612.38,513.33z M-641.26,513.33h-6.28c-3.46,0-6.28-2.73-6.28-6.1
								c0-3.37,2.82-6.1,6.28-6.1h6.28c3.46,0,6.28,2.73,6.28,6.1C-634.98,510.6-637.79,513.33-641.26,513.33z M-670.14,513.33
								h-6.28c-3.46,0-6.28-2.73-6.28-6.1c0-3.37,2.82-6.1,6.28-6.1h6.28c3.46,0,6.28,2.73,6.28,6.1
								C-663.86,510.6-666.66,513.33-670.14,513.33z M-699.01,513.33h-6.28c-3.46,0-6.28-2.73-6.28-6.1c0-3.37,2.82-6.1,6.28-6.1
								h6.28c3.46,0,6.28,2.73,6.28,6.1C-692.73,510.6-695.54,513.33-699.01,513.33z M-727.89,513.33h-6.28
								c-3.46,0-6.28-2.73-6.28-6.1c0-3.37,2.82-6.1,6.28-6.1h6.28c3.46,0,6.28,2.73,6.28,6.1
								C-721.61,510.6-724.42,513.33-727.89,513.33z M-756.76,513.33h-6.28c-3.46,0-6.27-2.73-6.27-6.1c0-3.37,2.81-6.1,6.27-6.1
								h6.28c3.47,0,6.28,2.73,6.28,6.1C-750.48,510.6-753.29,513.33-756.76,513.33z M-785.64,513.33h-6.27
								c-3.47,0-6.28-2.73-6.28-6.1c0-3.37,2.81-6.1,6.28-6.1h6.27c3.47,0,6.28,2.73,6.28,6.1
								C-779.36,510.6-782.17,513.33-785.64,513.33z M-814.51,513.33h-6.27c-3.47,0-6.28-2.73-6.28-6.1c0-3.37,2.81-6.1,6.28-6.1
								h6.27c3.47,0,6.28,2.73,6.28,6.1C-808.24,510.6-811.04,513.33-814.51,513.33z M-843.38,513.33h-6.28
								c-3.47,0-6.28-2.73-6.28-6.1c0-3.37,2.81-6.1,6.28-6.1h6.28c3.46,0,6.27,2.73,6.27,6.1
								C-837.11,510.6-839.92,513.33-843.38,513.33z M-872.26,513.33h-6.28c-3.47,0-6.28-2.73-6.28-6.1c0-3.37,2.81-6.1,6.28-6.1
								h6.28c3.46,0,6.27,2.73,6.27,6.1C-865.99,510.6-868.79,513.33-872.26,513.33z M-901.13,513.33h-6.28
								c-3.47,0-6.28-2.73-6.28-6.1c0-3.37,2.81-6.1,6.28-6.1h6.28c3.46,0,6.27,2.73,6.27,6.1
								C-894.86,510.6-897.67,513.33-901.13,513.33z"/>
						</g>
						<g id="XMLID_16542_">
							<path id="XMLID_16543_" class="st1" d="M-803.34,478.29c-0.54,0-1.09-0.07-1.63-0.21l-70.43-18.39
								c-2.74-0.72-4.65-3.13-4.65-5.89v-86.42c0-1.9,0.91-3.69,2.46-4.84c1.54-1.15,3.56-1.55,5.45-1.05l70.43,18.35
								c2.74,0.72,4.65,3.13,4.65,5.89v86.46c0,1.9-0.9,3.69-2.46,4.84C-800.63,477.85-801.97,478.29-803.34,478.29z M-867.5,449.12
								l57.88,15.11v-73.82l-57.88-15.08V449.12z"/>
						</g>
						<g id="XMLID_16546_">
							<path id="XMLID_16547_" class="st1" d="M-803.34,478.29c-1.36,0-2.71-0.44-3.82-1.26c-1.54-1.15-2.46-2.95-2.46-4.84v-86.46
								c0-2.76,1.91-5.17,4.65-5.89l41.17-10.73c1.88-0.49,3.89-0.11,5.45,1.05c1.54,1.15,2.45,2.94,2.45,4.84v5.18l24.62,6.41
								c2.74,0.72,4.65,3.13,4.65,5.9v61.32c0,2.76-1.91,5.17-4.65,5.89l-70.44,18.39C-802.24,478.21-802.8,478.29-803.34,478.29z
								 M-797.06,390.41v73.82l57.88-15.11v-51.95l-24.62-6.42c-2.75-0.71-4.66-3.13-4.66-5.89v-1.91L-797.06,390.41z"/>
						</g>
						<g id="XMLID_16550_">
							<path id="XMLID_16551_" class="st1" d="M-803.34,391.83c-0.55,0-1.1-0.07-1.63-0.21l-70.43-18.35
								c-2.75-0.72-4.65-3.13-4.65-5.89c0-2.76,1.9-5.17,4.64-5.89l70.44-18.39c1.06-0.28,2.18-0.28,3.26,0l41.17,10.73
								c2.75,0.71,4.65,3.12,4.65,5.89V375c0,2.76-1.9,5.17-4.65,5.89l-41.17,10.72C-802.24,391.76-802.79,391.83-803.34,391.83z
								 M-849.56,367.37l46.22,12.05l34.89-9.1v-5.92l-34.89-9.09L-849.56,367.37z"/>
						</g>
						<g id="XMLID_16554_">
							<path id="XMLID_16555_" class="st1" d="M-713.26,403.7c-0.55,0-1.1-0.07-1.63-0.21l-48.9-12.74
								c-2.75-0.71-4.65-3.13-4.65-5.89v-59.99c0-1.9,0.9-3.69,2.46-4.84c1.54-1.15,3.56-1.54,5.45-1.05l48.9,12.78
								c2.74,0.72,4.65,3.13,4.65,5.89v59.95c0,1.9-0.91,3.69-2.46,4.84C-710.55,403.26-711.9,403.7-713.26,403.7z M-755.89,380.17
								l36.35,9.47v-47.33l-36.35-9.5V380.17z"/>
						</g>
						<g id="XMLID_16558_">
							<path id="XMLID_16559_" class="st1" d="M-713.26,403.7c-1.37,0-2.71-0.44-3.82-1.26c-1.55-1.15-2.46-2.95-2.46-4.84v-59.95
								c0-2.76,1.9-5.17,4.64-5.89l48.86-12.78c1.89-0.49,3.9-0.11,5.45,1.05c1.55,1.15,2.47,2.95,2.47,4.84v59.99
								c0,2.76-1.91,5.17-4.66,5.89l-48.85,12.74C-712.17,403.63-712.72,403.7-713.26,403.7z M-706.98,342.32v47.33l36.3-9.47
								v-47.35L-706.98,342.32z"/>
						</g>
						<g id="XMLID_16562_">
							<path id="XMLID_16563_" class="st1" d="M-713.26,343.75c-0.55,0-1.1-0.07-1.63-0.21l-48.91-12.78
								c-2.74-0.71-4.64-3.13-4.64-5.89c0-2.76,1.91-5.17,4.65-5.89l48.9-12.74c1.06-0.27,2.18-0.27,3.26,0l48.86,12.74
								c2.74,0.72,4.65,3.13,4.65,5.89c0,2.76-1.91,5.17-4.65,5.89l-48.86,12.78C-712.17,343.68-712.71,343.75-713.26,343.75z
								 M-737.96,324.88l24.7,6.45l24.67-6.45l-24.67-6.44L-737.96,324.88z"/>
						</g>
						<g id="XMLID_16566_">
							<path id="XMLID_16567_" class="st1" d="M-700.07,485.65c-0.55,0-1.09-0.07-1.63-0.21l-54.51-14.22
								c-2.75-0.72-4.65-3.14-4.65-5.9v-5.83c0-2.76,1.9-5.17,4.64-5.89l17.05-4.47v-45.08c0-1.9,0.91-3.69,2.46-4.84
								c1.55-1.15,3.57-1.53,5.45-1.05l32.82,8.57c2.74,0.71,4.65,3.13,4.65,5.89v66.93c0,1.9-0.91,3.69-2.46,4.84
								C-697.36,485.21-698.7,485.65-700.07,485.65z M-741.61,462.4l35.25,9.19V417.3l-20.26-5.29v41.79c0,2.76-1.9,5.17-4.64,5.89
								L-741.61,462.4z"/>
						</g>
						<g id="XMLID_16570_">
							<path id="XMLID_16571_" class="st1" d="M-700.07,485.65c-1.37,0-2.71-0.44-3.82-1.27c-1.54-1.15-2.46-2.94-2.46-4.83v-66.93
								c0-2.76,1.91-5.18,4.65-5.89l54.55-14.22c1.88-0.5,3.9-0.11,5.45,1.05c1.54,1.15,2.46,2.95,2.46,4.83v66.93
								c0,2.76-1.91,5.18-4.65,5.89l-54.55,14.23C-698.99,485.57-699.53,485.65-700.07,485.65z M-693.8,417.3v54.3l42.01-10.95
								v-54.3L-693.8,417.3z"/>
						</g>
						<g id="XMLID_16574_">
							<path id="XMLID_16575_" class="st1" d="M-700.07,418.72c-0.55,0-1.1-0.07-1.63-0.21l-32.82-8.57
								c-2.74-0.72-4.65-3.13-4.65-5.89v-11.34c0-2.74,1.89-5.16,4.62-5.88l0.43-0.11c1.07-0.29,2.21-0.29,3.29-0.02l17.57,4.58
								l30.72-8.03c1.07-0.28,2.19-0.28,3.26,0l35.4,9.26c2.74,0.72,4.65,3.13,4.65,5.89c-0.01,2.76-1.91,5.17-4.65,5.89
								l-54.55,14.22C-698.98,418.64-699.53,418.72-700.07,418.72z M-711.24,403.38l11.16,2.91l30.36-7.91l-11.2-2.93
								L-711.24,403.38z"/>
						</g>
					</g>
				</g>
			</g>
		</g>
		<g id="Layer_1_20_">
		</g>
	</g>
	<rect y="251" class="st2" width="368" height="93"/>
	<rect x="913" y="243" class="st2" width="368" height="93"/>
	<rect x="448" class="st2" width="368" height="102"/>
	<rect x="450" y="619" class="st2" width="368" height="101"/>
</g>
<g id="Layer_2" class="st3">
	<g class="st4">
		<g>
			<path class="st0" d="M877.06,502.74H403.93c-19.82,0-35.93-15.62-35.93-34.82v-330.1c0-19.2,16.12-34.82,35.93-34.82h473.13
				c19.82,0,35.94,15.62,35.94,34.82v330.1C912.99,487.12,896.87,502.74,877.06,502.74z M403.93,115.48
				c-12.71,0-23.06,10.02-23.06,22.34v330.1c0,12.31,10.35,22.34,23.06,22.34h473.13c12.71,0,23.06-10.03,23.06-22.34v-330.1
				c0-12.32-10.36-22.34-23.06-22.34H403.93L403.93,115.48z"/>
			<path class="st0" d="M869.09,437.46H411.05c-3.45,0-6.25-2.8-6.25-6.25V138.32c0-3.45,2.8-6.25,6.25-6.25h458.04
				c3.45,0,6.25,2.8,6.25,6.25v292.89C875.33,434.66,872.53,437.46,869.09,437.46z M417.28,424.97h445.56V144.56H417.28V424.97z"/>
			<path class="st0" d="M723.82,595.82c-0.01,0-0.02,0-0.02,0H557.45c-1.94,0-3.76-0.9-4.94-2.43c-1.18-1.54-1.59-3.53-1.1-5.4
				l24.48-93.09c0.72-2.74,3.2-4.65,6.04-4.65h117.36c2.83,0,5.31,1.91,6.03,4.65l24.37,92.54c0.24,0.67,0.37,1.38,0.37,2.13
				C730.07,593.03,727.27,595.82,723.82,595.82z M565.54,583.35H715.7l-21.23-80.61H586.73L565.54,583.35z"/>
			<path class="st0" d="M797.33,618.48H483.88c-3.45,0-6.24-2.8-6.24-6.25v-22.65c0-3.45,2.79-6.25,6.24-6.25h313.45
				c3.45,0,6.24,2.8,6.24,6.25v22.66C803.57,615.69,800.78,618.48,797.33,618.48z M490.12,606h300.97v-10.17H490.12V606z"/>
			<path class="st0" d="M640.63,483.73c-9.4,0-17.04-7.63-17.04-17.01c0-9.39,7.64-17.04,17.04-17.04c9.38,0,17.01,7.65,17.01,17.04
				C657.63,476.1,650,483.73,640.63,483.73z M640.63,462.15c-2.52,0-4.57,2.05-4.57,4.57c0,2.49,2.05,4.52,4.57,4.52
				c2.5,0,4.53-2.03,4.53-4.52C645.16,464.2,643.12,462.15,640.63,462.15z"/>
		</g>
	</g>
</g>
<g id="Layer_3">
	<g>
		<path class="st1" d="M442.41-143.71L410.2-111.5c-2.86,2.86-7.54,2.86-10.4,0l-32.21-32.21c-2.86-2.86-2.86-7.54,0-10.4
			l32.21-32.21c2.86-2.86,7.54-2.86,10.4,0l32.21,32.21C445.27-151.25,445.27-146.57,442.41-143.71z"/>
	</g>
	<g>
	</g>
	<g>
		<g id="_x31_638_x2C__Computer_x2C__configure_x2C__laptop_x2C__preference_x2C__setting">
			<g>
				<rect x="-763.83" y="-270.75" class="st5" width="541.07" height="541.07"/>
				<g>
					<g>
						<g>
							<g>
								<path d="M-131.09,73.95h-280.42c-1.84,0-3.34-1.49-3.34-3.34v-267.07c0-1.84,1.49-3.34,3.34-3.34h280.42
									c1.84,0,3.34,1.49,3.34,3.34V70.62C-127.75,72.46-129.24,73.95-131.09,73.95z M-408.17,67.28h273.75v-260.4h-273.75V67.28z"
									/>
							</g>
							<g>
								<path d="M-251.27,47.25h-40.06c-1.84,0-3.34-1.5-3.34-3.34V17.22c-5.82-1.69-11.44-4.02-16.77-6.96l-18.88,18.88
									c-0.63,0.63-1.48,0.98-2.36,0.98c-0.88,0-1.73-0.35-2.36-0.98l-28.32-28.33c-1.31-1.3-1.31-3.42,0-4.72l18.87-18.88
									c-2.93-5.33-5.26-10.95-6.95-16.77h-26.69c-1.84,0-3.34-1.5-3.34-3.34v-40.06c0-1.84,1.49-3.34,3.34-3.34h26.69
									c1.69-5.82,4.02-11.44,6.95-16.77l-18.87-18.88c-1.31-1.3-1.31-3.42,0-4.72l28.32-28.33c1.31-1.3,3.42-1.3,4.72,0
									l18.88,18.88c5.33-2.93,10.95-5.26,16.77-6.96v-26.69c0-1.84,1.49-3.34,3.34-3.34h40.06c1.84,0,3.34,1.49,3.34,3.34v26.69
									c5.82,1.7,11.44,4.03,16.77,6.96l18.88-18.88c1.3-1.3,3.41-1.3,4.72,0l28.33,28.33c0.63,0.62,0.98,1.48,0.98,2.36
									c0,0.88-0.35,1.73-0.98,2.36l-18.88,18.88c2.93,5.33,5.26,10.95,6.96,16.77h26.68c1.84,0,3.34,1.49,3.34,3.34v40.06
									c0,1.84-1.49,3.34-3.34,3.34h-26.68c-1.7,5.81-4.03,11.44-6.96,16.77l18.88,18.88c1.3,1.3,1.3,3.42,0,4.72l-28.33,28.33
									c-1.3,1.3-3.42,1.3-4.72,0l-18.88-18.88c-5.33,2.93-10.95,5.26-16.77,6.96v26.69C-247.93,45.75-249.42,47.25-251.27,47.25z
									 M-287.99,40.57h33.38V14.68c0-1.52,1.03-2.85,2.51-3.24c6.93-1.78,13.6-4.55,19.8-8.21c1.31-0.78,2.98-0.57,4.06,0.51
									l18.32,18.32l23.61-23.61l-18.32-18.32c-1.08-1.07-1.29-2.74-0.52-4.06c3.66-6.2,6.42-12.87,8.21-19.8
									c0.38-1.48,1.71-2.51,3.23-2.51h25.9v-33.38h-25.9c-1.52,0-2.85-1.03-3.23-2.51c-1.79-6.93-4.55-13.6-8.21-19.8
									c-0.77-1.31-0.56-2.98,0.52-4.06l18.32-18.32l-23.61-23.61l-18.32,18.32c-1.08,1.08-2.75,1.29-4.06,0.51
									c-6.2-3.66-12.87-6.43-19.8-8.21c-1.47-0.38-2.51-1.71-2.51-3.23v-25.89h-33.38v25.89c0,1.52-1.03,2.85-2.51,3.23
									c-6.93,1.79-13.6,4.55-19.8,8.21c-1.31,0.77-2.98,0.57-4.06-0.51l-18.32-18.32l-23.6,23.61l18.32,18.32
									c1.07,1.08,1.28,2.75,0.51,4.06c-3.66,6.2-6.42,12.87-8.21,19.8c-0.38,1.48-1.71,2.51-3.23,2.51h-25.9v33.38h25.9
									c1.52,0,2.85,1.03,3.23,2.51c1.79,6.93,4.55,13.59,8.21,19.8c0.77,1.31,0.56,2.98-0.51,4.06l-18.32,18.32l23.6,23.61
									l18.32-18.32c1.08-1.08,2.75-1.29,4.06-0.51c6.21,3.66,12.87,6.43,19.8,8.21c1.47,0.38,2.51,1.71,2.51,3.24V40.57
									L-287.99,40.57z"/>
							</g>
							<g>
								<path d="M-271.29,20.54c-46.02,0-83.46-37.44-83.46-83.46c0-46.02,37.44-83.46,83.46-83.46c46.01,0,83.45,37.44,83.45,83.46
									C-187.84-16.9-225.28,20.54-271.29,20.54z M-271.29-139.7c-42.34,0-76.79,34.44-76.79,76.78
									c0,42.34,34.44,76.78,76.79,76.78c42.33,0,76.78-34.44,76.78-76.78C-194.51-105.26-228.96-139.7-271.29-139.7z"/>
							</g>
							<g>
								<path d="M-271.29-6.17c-31.3,0-56.75-25.46-56.75-56.75c0-31.3,25.46-56.75,56.75-56.75c31.29,0,56.75,25.46,56.75,56.75
									C-214.55-31.63-240-6.17-271.29-6.17z M-271.29-113c-27.61,0-50.08,22.46-50.08,50.07c0,27.61,22.46,50.08,50.08,50.08
									c27.61,0,50.07-22.47,50.07-50.08C-221.22-90.53-243.68-113-271.29-113z"/>
							</g>
							<g>
								<path d="M-271.29-46.23c-9.21,0-16.7-7.49-16.7-16.69c0-9.21,7.49-16.69,16.7-16.69c9.2,0,16.69,7.49,16.69,16.69
									C-254.61-53.72-262.09-46.23-271.29-46.23z M-271.29-72.94c-5.53,0-10.02,4.49-10.02,10.02c0,5.52,4.49,10.02,10.02,10.02
									c5.52,0,10.01-4.5,10.01-10.02C-261.28-68.44-265.77-72.94-271.29-72.94z"/>
							</g>
							<g>
								<path d="M-151.11,127.37h-240.37c-23.93,0-43.4-19.47-43.4-43.4V70.62c0-1.84,1.49-3.34,3.34-3.34h320.49
									c1.84,0,3.34,1.49,3.34,3.34v13.35C-107.72,107.9-127.19,127.37-151.11,127.37z M-428.21,73.95v10.02
									c0,20.25,16.48,36.73,36.73,36.73h240.37c20.25,0,36.72-16.48,36.72-36.73V73.95H-428.21z"/>
							</g>
						</g>
					</g>
				</g>
			</g>
		</g>
		<g id="Layer_1_21_">
		</g>
	</g>
	<g>
		<path class="st0" d="M477-253v174.05H374.67c-22.97,0-41.67-18.69-41.67-41.67V-253H477 M479.7-266H330.3
			c-5.67,0-10.3,4.64-10.3,10.3v135.08c0,30.07,24.6,54.67,54.67,54.67H479.7c5.67,0,10.3-4.64,10.3-10.3V-255.7
			C490-261.36,485.36-266,479.7-266L479.7-266z"/>
	</g>
	<g id="XMLID_16580_">
		<path id="XMLID_16581_" class="st1" d="M368.94-169.33c0,1.55-1.22,2.81-2.73,2.81h-2.73c-1.51,0-2.73-1.26-2.73-2.81
			c0-1.55,1.22-2.81,2.73-2.81h2.73C367.72-172.13,368.94-170.88,368.94-169.33z M356.39-169.33c0,1.55-1.22,2.81-2.73,2.81h-2.73
			c-1.51,0-2.73-1.26-2.73-2.81c0-1.55,1.22-2.81,2.73-2.81h2.73C355.17-172.13,356.39-170.88,356.39-169.33z M343.84-169.33
			c0,1.55-1.22,2.81-2.73,2.81h-2.73c-1.5,0-2.73-1.26-2.73-2.81c0-1.55,1.22-2.81,2.73-2.81h2.73
			C342.62-172.13,343.84-170.88,343.84-169.33z"/>
	</g>
	<g>
		<path class="st0" d="M405-238.53c-2.36,0-4.29,1.93-4.29,4.29v135.66c0,2.36,1.93,4.29,4.29,4.29s4.29-1.93,4.29-4.29v-135.66
			C409.29-236.59,407.36-238.53,405-238.53L405-238.53z"/>
	</g>
	<g>
		<path class="st0" d="M404.52-218.38l25.88,25.88l-25.88,25.88l-25.88-25.88L404.52-218.38 M404.52-228.34
			c-1.71,0-3.41,0.65-4.71,1.94l-29.19,29.19c-2.59,2.59-2.59,6.83,0,9.42l29.19,29.19c1.3,1.3,3,1.94,4.71,1.94
			s3.41-0.65,4.71-1.94l29.19-29.19c2.59-2.59,2.59-6.83,0-9.42l-29.19-29.19C407.93-227.7,406.22-228.34,404.52-228.34
			L404.52-228.34z"/>
	</g>
	<g id="XMLID_00000130633494924365372680000006419846930630496179_">
		<path id="XMLID_00000071538182040174827450000005224837451258715826_" class="st1" d="M474.16-169.66c0,1.55-1.22,2.81-2.73,2.81
			h-2.73c-1.51,0-2.73-1.26-2.73-2.81c0-1.55,1.22-2.81,2.73-2.81h2.73C472.94-172.46,474.16-171.2,474.16-169.66z M461.61-169.66
			c0,1.55-1.22,2.81-2.73,2.81h-2.73c-1.51,0-2.73-1.26-2.73-2.81c0-1.55,1.22-2.81,2.73-2.81h2.73
			C460.39-172.46,461.61-171.2,461.61-169.66z M449.06-169.66c0,1.55-1.22,2.81-2.73,2.81h-2.73c-1.5,0-2.73-1.26-2.73-2.81
			c0-1.55,1.22-2.81,2.73-2.81h2.73C447.84-172.46,449.06-171.2,449.06-169.66z"/>
	</g>
	<g>
		<path class="st1" d="M500.56-188.72l-2.47,10.74c-0.52,2.21-2.19,3.96-4.37,4.56L470.83-167l12.29-12.29
			c0.35,0.09,0.7,0.14,1.07,0.14c2.28,0,4.12-1.84,4.12-4.12s-1.84-4.12-4.12-4.12c-2.28,0-4.12,1.84-4.12,4.12
			c0,0.38,0.05,0.72,0.14,1.07l-12.29,12.28l6.41-23c0.61-2.06,2.36-3.74,4.56-4.25l10.75-2.47L500.56-188.72z M515.81-229.26
			c1.93-2.22,4.73-3.49,7.67-3.49c5.62,0,10.18,4.56,10.18,10.18c0,2.94-1.28,5.73-3.49,7.67l-26.7,23.26l-11.03-10.91
			L515.81-229.26z"/>
	</g>
	<g>
		<g>
			<path class="st1" d="M-523.06,894.88c6.52,0,11.8,5.28,11.8,11.78c0,6.52-5.28,11.8-11.8,11.8c-6.51,0-11.78-5.28-11.78-11.8
				C-534.84,900.15-529.57,894.88-523.06,894.88z"/>
			<path class="st1" d="M-487.68,894.88c6.51,0,11.78,5.28,11.78,11.78c0,6.52-5.28,11.8-11.78,11.8c-6.52,0-11.8-5.28-11.8-11.8
				C-499.48,900.15-494.2,894.88-487.68,894.88z"/>
			<path class="st1" d="M-452.32,894.88c6.5,0,11.78,5.28,11.78,11.78c0,6.52-5.28,11.8-11.78,11.8c-6.52,0-11.8-5.28-11.8-11.8
				C-464.12,900.15-458.85,894.88-452.32,894.88z"/>
			<path class="st1" d="M-491.2,1161.87c-17.24,0-31.26,14.01-31.26,31.25c0,17.2,14.03,31.2,31.26,31.2c17.2,0,31.18-14,31.18-31.2
				C-460.01,1175.89-473.99,1161.87-491.2,1161.87z M-491.2,1212.54c-10.74,0-19.47-8.72-19.47-19.42
				c0-10.73,8.72-19.47,19.47-19.47c10.7,0,19.4,8.74,19.4,19.47C-471.79,1203.82-480.5,1212.54-491.2,1212.54z"/>
			<path class="st1" d="M-491.2,1126.63c-36.67,0-66.5,29.82-66.5,66.5c0,36.64,29.83,66.44,66.5,66.44
				c36.62,0,66.43-29.81,66.43-66.44C-424.77,1156.47-454.57,1126.63-491.2,1126.63z M-491.2,1247.79
				c-30.18,0-54.71-24.52-54.71-54.66c0-30.17,24.53-54.7,54.71-54.7c30.13,0,54.65,24.53,54.65,54.7
				C-436.55,1223.27-461.06,1247.79-491.2,1247.79z"/>
			<path class="st0" d="M-357.93,1174.69l-34.18-7.62c-2.34-8.95-5.9-17.53-10.61-25.6l18.77-29.65c1.47-2.33,1.13-5.37-0.81-7.32
				l-14.53-14.53V903.31c0-20.89-17.01-37.9-37.92-37.9h-395.65c-20.91,0-37.92,17.01-37.92,37.9v389.78
				c0,20.91,17.01,37.92,37.92,37.92c13.58,0,341.62,0,354.29,0c2.75,0,5.15-1.92,5.75-4.61l7.64-34.18c9-2.35,17.57-5.91,25.6-10.6
				l29.63,18.76c2.34,1.47,5.37,1.15,7.33-0.81l17.87-17.88c1.96-1.94,2.3-4.98,0.83-7.31l-18.77-29.65
				c4.71-8.08,8.27-16.65,10.6-25.58l34.18-7.64c2.7-0.6,4.61-2.99,4.61-5.76v-25.29C-353.32,1177.68-355.24,1175.31-357.93,1174.69
				z M-411.07,903.32v32.82h-176.81V877.2h150.69C-422.79,877.2-411.07,888.92-411.07,903.32z M-858.98,936.14v-23.58h259.31v23.58
				H-858.98z M-832.86,877.2h233.19v23.56h-259.2C-857.57,887.56-846.41,877.2-832.86,877.2z M-858.98,1293.08V947.92h447.91v138.61
				l-28.51,18.11c-2.23-1.31-4.51-2.52-6.84-3.66V989.17c0-3.25-2.64-5.89-5.89-5.89h-365.41c-3.25,0-5.89,2.64-5.89,5.89v288.78
				c0,3.27,2.64,5.9,5.89,5.9h222.21l15.7,15.71c1.96,1.94,5,2.28,7.33,0.81l29.65-18.77c8.06,4.71,16.65,8.27,25.58,10.62
				l6.04,26.99h-321.63C-847.26,1319.22-858.98,1307.5-858.98,1293.08z M-465.19,1093.99l-7.64-34.18c-0.6-2.7-2.99-4.61-5.75-4.61
				h-25.31c-2.75,0-5.15,1.91-5.75,4.61l-7.64,34.18c-9.06,2.41-17.64,5.97-25.6,10.65l-29.63-18.81c-2.33-1.47-5.37-1.15-7.33,0.81
				l-17.87,17.86c-1.94,1.96-2.28,5-0.81,7.33l18.76,29.63c-4.71,8.08-8.27,16.67-10.6,25.6l-34.18,7.64
				c-2.7,0.6-4.61,2.99-4.61,5.74v25.31c0,2.75,1.91,5.15,4.61,5.75l34.18,7.64c2.34,9,5.9,17.57,10.6,25.6l-17.3,27.33h-214.79
				v-277h353.63v101.03C-460.51,1095.33-462.83,1094.62-465.19,1093.99z M-365.12,1201.04l-33.14,7.39
				c-2.23,0.5-3.98,2.25-4.47,4.47c-2.27,10.15-6.26,19.82-11.91,28.74c-1.23,1.92-1.23,4.39,0,6.31l18.19,28.74l-11.2,11.2
				l-28.74-18.19c-1.94-1.23-4.4-1.23-6.31,0c-8.84,5.63-18.51,9.63-28.72,11.89c-2.23,0.5-3.98,2.25-4.48,4.48l-7.4,33.14h-15.86
				l-7.41-33.14c-0.5-2.23-2.25-3.98-4.47-4.48c-10.15-2.25-19.81-6.25-28.74-11.89c-1.93-1.23-4.39-1.23-6.3,0l-28.76,18.19
				l-11.2-11.2l18.2-28.74c1.23-1.94,1.21-4.4-0.02-6.33c-5.61-8.84-9.63-18.5-11.89-28.72c-0.5-2.22-2.25-3.97-4.47-4.47
				l-33.16-7.39v-15.86l33.16-7.41c2.22-0.5,3.96-2.23,4.47-4.47c2.25-10.15,6.26-19.81,11.91-28.74c1.21-1.92,1.21-4.39,0-6.29
				l-18.2-28.76l11.2-11.2l28.76,18.24c1.93,1.23,4.39,1.23,6.33,0c8.74-5.58,18.41-9.61,28.74-11.96c2.22-0.5,3.95-2.23,4.45-4.47
				l7.4-33.14h15.86l7.41,33.14c0.5,2.23,2.22,3.97,4.43,4.47c10.26,2.33,20.23,6.52,28.76,11.96c1.93,1.23,4.39,1.23,6.33,0
				l28.74-18.24l11.2,11.2l-18.19,28.76c-1.23,1.92-1.23,4.37,0,6.29c5.65,8.93,9.64,18.6,11.91,28.74
				c0.49,2.23,2.23,3.98,4.47,4.47l33.14,7.41v15.86H-365.12L-365.12,1201.04z"/>
			<path class="st1" d="M-670.39,1224.92h-117.88c-3.25,0-5.89,2.64-5.89,5.89c0,3.25,2.64,5.91,5.89,5.91h117.88
				c3.25,0,5.89-2.65,5.89-5.91C-664.5,1227.56-667.13,1224.92-670.39,1224.92z"/>
			<path class="st1" d="M-788.26,1213.14h53.05c3.25,0,5.89-2.65,5.89-5.91s-2.64-5.89-5.89-5.89h-53.05
				c-3.25,0-5.89,2.64-5.89,5.89S-791.51,1213.14-788.26,1213.14z"/>
			<path class="st1" d="M-670.39,1171.88h-117.88c-3.25,0-5.89,2.64-5.89,5.91c0,3.25,2.64,5.89,5.89,5.89h117.88
				c3.25,0,5.89-2.64,5.89-5.89C-664.5,1174.51-667.13,1171.88-670.39,1171.88z"/>
			<path class="st1" d="M-788.26,1160.09h53.05c3.25,0,5.89-2.64,5.89-5.89c0-3.25-2.64-5.91-5.89-5.91h-53.05
				c-3.25,0-5.89,2.65-5.89,5.91C-794.15,1157.46-791.51,1160.09-788.26,1160.09z"/>
			<path class="st1" d="M-670.39,1118.84h-117.88c-3.25,0-5.89,2.64-5.89,5.89c0,3.25,2.64,5.89,5.89,5.89h117.88
				c3.25,0,5.89-2.64,5.89-5.89C-664.5,1121.48-667.13,1118.84-670.39,1118.84z"/>
			<path class="st1" d="M-788.26,1107.05h53.05c3.25,0,5.89-2.64,5.89-5.89c0-3.25-2.64-5.91-5.89-5.91h-53.05
				c-3.25,0-5.89,2.65-5.89,5.91C-794.15,1104.41-791.51,1107.05-788.26,1107.05z"/>
			<path class="st1" d="M-670.39,1065.8h-117.88c-3.25,0-5.89,2.64-5.89,5.89c0,3.25,2.64,5.89,5.89,5.89h117.88
				c3.25,0,5.89-2.64,5.89-5.89C-664.5,1068.44-667.13,1065.8-670.39,1065.8z"/>
			<path class="st1" d="M-788.26,1054h53.05c3.25,0,5.89-2.64,5.89-5.89c0-3.25-2.64-5.89-5.89-5.89h-53.05
				c-3.25,0-5.89,2.64-5.89,5.89C-794.15,1051.36-791.51,1054-788.26,1054z"/>
		</g>
	</g>
	<g>
		<g>
			<g>
				<path class="st0" d="M659.25,619h-63.57c-2.62,0-4.91-2.13-5.08-4.75l-2.94-36.7c-11.15-3.11-21.8-7.53-31.79-13.11
					l-28.02,23.92c-2.13,1.8-5.08,1.64-7.05-0.33l-44.89-44.9c-1.97-1.96-1.97-4.91-0.32-7.04l23.92-28.02
					c-5.74-10.16-10.16-20.81-13.27-31.79l-36.7-2.94c-2.62-0.17-4.75-2.46-4.75-5.08v-63.57c0-2.62,2.13-4.91,4.75-5.08l40.31-3.28
					c2.78-0.16,5.4,1.97,5.57,4.75c0.17,2.78-1.96,5.41-4.75,5.57l-35.55,2.78v54.07l35.55,2.78c2.3,0.17,4.1,1.81,4.59,3.94
					c3.11,12.62,8.19,24.74,14.91,35.88c1.15,1.97,0.98,4.26-0.49,6.07l-23.1,27.19l38.18,38.18l27.2-23.1
					c1.64-1.48,4.09-1.64,6.06-0.49c11.14,6.55,23.1,11.63,35.88,14.91c2.13,0.49,3.77,2.46,3.94,4.59l2.78,35.72h54.07l2.78-35.72
					c0.17-2.29,1.81-4.1,3.94-4.59c12.78-3.28,24.74-8.19,35.88-14.91c1.97-1.15,4.26-0.98,6.07,0.49l27.19,23.1l38.18-38.18
					l-23.1-27.19c-1.48-1.64-1.64-4.1-0.49-6.07c6.56-11.14,11.63-23.26,14.91-35.88c0.49-2.13,2.46-3.77,4.59-3.94l35.72-2.78
					v-54.07l-35.72-2.78c-2.78-0.16-4.91-2.79-4.75-5.57c0.16-2.78,2.79-4.91,5.57-4.75l40.47,3.28c2.62,0.17,4.75,2.46,4.75,5.08
					v63.57c0,2.62-2.13,4.91-4.75,5.08l-36.7,2.94c-3.11,11.15-7.53,21.8-13.11,31.79L780,536.09c1.81,2.13,1.64,5.08-0.32,7.04
					l-44.9,44.9c-1.96,1.97-4.91,1.97-7.04,0.33l-28.02-23.92c-9.99,5.57-20.64,9.99-31.79,13.11l-2.95,36.7
					C664.17,617.03,661.87,619,659.25,619z"/>
			</g>
			<g>
				<path class="st1" d="M627.46,533.96c-53.9,0-97.65-43.74-97.65-97.65c0-2.78,2.29-5.24,5.24-5.24c2.94,0,5.24,2.3,5.24,5.24
					c0,48.17,39.16,87.33,87.34,87.33c48.17,0,87.33-39.16,87.33-87.33c0-2.78,2.29-5.24,5.24-5.24c2.78,0,5.24,2.3,5.24,5.24
					C725.12,490.06,681.21,533.96,627.46,533.96z"/>
			</g>
			<g>
				<path class="st1" d="M627.46,491.03c-30.14,0-54.88-24.57-54.88-54.88c0-2.78,2.29-5.24,5.24-5.24c2.94,0,5.24,2.29,5.24,5.24
					c0,24.58,19.99,44.57,44.4,44.57c24.58,0,44.57-19.99,44.57-44.57c0-2.78,2.29-5.24,5.24-5.24c2.95,0,5.24,2.29,5.24,5.24
					C682.35,466.46,657.61,491.03,627.46,491.03z"/>
			</g>
			<path class="st0" d="M720.03,391.26H534.89c-2.78,0-5.24-2.3-5.24-5.24v-56.04c0-39.16,31.95-71.11,71.11-71.11h53.41
				c39.16,0,71.11,31.95,71.11,71.11v56.04C725.28,388.96,722.99,391.26,720.03,391.26z M539.97,380.93h174.82v-50.79
				c0-33.42-27.19-60.78-60.78-60.78h-53.42c-33.42,0-60.78,27.19-60.78,60.78L539.97,380.93L539.97,380.93z"/>
			<path class="st0" d="M585.52,391.26c-2.79,0-5.24-2.3-5.24-5.24v-29.33c0-2.78,2.29-5.24,5.24-5.24c2.94,0,5.24,2.29,5.24,5.24
				v29.33C590.6,388.96,588.31,391.26,585.52,391.26z"/>
			<path class="st0" d="M668.26,391.26c-2.78,0-5.24-2.3-5.24-5.24v-29.33c0-2.78,2.29-5.24,5.24-5.24s5.24,2.29,5.24,5.24v29.33
				C673.51,388.96,671.21,391.26,668.26,391.26z"/>
			<path class="st0" d="M824.74,370.45h-104.7c-2.78,0-5.24-2.29-5.24-5.24v-26.54c0-29.5,23.92-53.58,53.58-53.58h8.03
				c29.49,0,53.57,23.92,53.57,53.58v26.54C829.97,368.15,827.68,370.45,824.74,370.45z M725.28,360.12h94.38v-21.3
				c0-23.76-19.34-43.09-43.09-43.09h-8.03c-23.76,0-43.09,19.34-43.09,43.09L725.28,360.12L725.28,360.12z"/>
			<path class="st0" d="M772.47,295.73c-19.34,0-35.06-15.73-35.06-35.06c0-19.34,15.73-35.06,35.06-35.06
				c19.34,0,35.07,15.72,35.07,35.06C807.53,280,791.8,295.73,772.47,295.73z M772.47,235.93c-13.6,0-24.74,11.14-24.74,24.74
				c0,13.6,11.14,24.74,24.74,24.74c13.6,0,24.74-11.14,24.74-24.74C797.21,247.07,786.07,235.93,772.47,235.93z"/>
			<path class="st0" d="M751.17,370.45c-2.79,0-5.24-2.29-5.24-5.24v-22.45c0-2.78,2.29-5.24,5.24-5.24c2.78,0,5.24,2.3,5.24,5.24
				v22.45C756.24,368.15,753.95,370.45,751.17,370.45z"/>
			<path class="st0" d="M792.62,370.45c-2.78,0-5.24-2.29-5.24-5.24v-22.45c0-2.78,2.3-5.24,5.24-5.24c2.79,0,5.24,2.3,5.24,5.24
				v22.45C797.7,368.15,795.41,370.45,792.62,370.45z"/>
			<path class="st0" d="M534.89,370.45h-104.7c-2.78,0-5.24-2.29-5.24-5.24v-26.54c0-29.5,23.93-53.58,53.58-53.58h8.03
				c29.49,0,53.58,23.92,53.58,53.58v26.54C539.97,368.15,537.68,370.45,534.89,370.45z M435.28,360.12h94.37v-21.3
				c0-23.76-19.33-43.09-43.09-43.09h-8.03c-23.76,0-43.09,19.34-43.09,43.09v21.3H435.28z"/>
			<path class="st0" d="M482.46,295.73c-19.33,0-35.06-15.73-35.06-35.06c0-19.34,15.73-35.06,35.06-35.06
				c19.34,0,35.07,15.72,35.07,35.06C517.52,280,501.79,295.73,482.46,295.73z M482.46,235.93c-13.59,0-24.73,11.14-24.73,24.74
				c0,13.6,11.14,24.74,24.73,24.74c13.6,0,24.75-11.14,24.75-24.74C507.21,247.07,496.06,235.93,482.46,235.93z"/>
			<path class="st0" d="M461.16,370.45c-2.78,0-5.24-2.29-5.24-5.24v-22.45c0-2.78,2.29-5.24,5.24-5.24c2.78,0,5.24,2.3,5.24,5.24
				v22.45C466.41,368.15,464.11,370.45,461.16,370.45z"/>
			<path class="st0" d="M502.62,370.45c-2.78,0-5.24-2.29-5.24-5.24v-22.45c0-2.78,2.29-5.24,5.24-5.24c2.95,0,5.24,2.3,5.24,5.24
				v22.45C507.86,368.15,505.4,370.45,502.62,370.45z"/>
			<path class="st0" d="M627.46,269.19c-32.11,0-58.16-26.05-58.16-58.16c0-32.11,26.05-58.17,58.16-58.17
				c32.11,0,58.17,26.05,58.17,58.17C685.63,243.14,659.41,269.19,627.46,269.19z M627.46,163.34c-26.38,0-47.67,21.46-47.67,47.68
				c0,26.22,21.46,47.67,47.67,47.67c26.22,0,47.68-21.46,47.68-47.67C675.14,184.81,653.84,163.34,627.46,163.34z"/>
		</g>
	</g>
</g>
</svg>
