<svg id="Layer_2" data-name="Layer 2" xmlns="http://www.w3.org/2000/svg" viewBox="0 0 797.78 556.68"><defs><style>.cls-1{fill:#21659e;}</style></defs><path class="cls-1" d="M498.46,287.82c0,174.1-119.24,278.24-242.46,278.24s-243.26-97-243.26-278.24C12.74,113.72,133.57,9.58,256,9.58S498.46,106.56,498.46,287.82ZM256,526.31c112.09,0,159-119.25,159-238.49S368.09,49.33,256,49.33,96.21,168.57,96.21,287.82,143.91,526.31,256,526.31Z" transform="translate(-12.74 -9.58)"/><path class="cls-1" d="M451.66,304.09V269.5h41.27q18.07,0,32.43-1.18a96.33,96.33,0,0,0,26.33-5.7,69.75,69.75,0,0,0,21.62-13q9.63-8.44,18.08-23t15.92-35.77q7.46-21.22,15.33-51.49Q630.5,108,636.59,86a328.09,328.09,0,0,1,12-36.36q5.89-14.34,12.18-22.41a38.83,38.83,0,0,1,14.55-11.79A57.4,57.4,0,0,1,695,10.87q11.4-.78,27.51-.78,33.4,0,71.93,3.14L796,37.6q-27.12.8-45.79,8.06A92.41,92.41,0,0,0,718,66.49Q704.39,80.05,694,99.9t-21.42,45q-8.26,18.48-16.91,36.56t-18.47,34.39a232.93,232.93,0,0,1-21.42,30.07A132.2,132.2,0,0,1,590,269.5q28.31,41.67,51.89,81.36T685.53,424q18.86,31,34.39,54.63t28.89,36.95A125,125,0,0,0,762.56,527,92.64,92.64,0,0,0,776.32,535a107.18,107.18,0,0,0,14.94,5.7q7.85,2.35,18.08,4.71l1.18,17.3q-28.31,3.54-47.17,3.54-16.12,0-28.3-.79a126,126,0,0,1-21.81-3.15,85.35,85.35,0,0,1-17.3-6.09,72.64,72.64,0,0,1-14.74-9.63q-17.69-13-35-38.52T610.06,448q-15.33-27.12-31.25-56.6T544,333.18q-5.5-8.26-9.44-14a38,38,0,0,0-8.45-9,28.24,28.24,0,0,0-10.21-4.71,64.62,64.62,0,0,0-14.75-1.38Z" transform="translate(-12.74 -9.58)"/></svg>